{"glyphs":{"0":{"ha":746,"x_min":0,"x_max":678,"o":"m 339 949 q 579 810 479 949 q 678 475 678 671 q 579 139 678 278 q 339 0 479 0 q 99 139 199 0 q 0 475 0 278 q 99 810 0 671 q 339 949 199 949 m 339 882 q 147 763 227 882 q 68 475 68 644 q 147 187 68 306 q 339 68 227 68 q 531 187 452 68 q 610 475 610 306 q 531 763 610 644 q 339 882 452 882 z "},"1":{"ha":203,"x_min":0,"x_max":136,"o":"m 136 949 l 136 0 l 68 0 l 68 814 l 0 814 l 68 949 l 136 949 z "},"2":{"ha":746,"x_min":-1,"x_max":701,"o":"m 555 582 q 608 748 629 665 q 533 854 591 817 q 336 878 475 892 q 33 756 198 865 l 0 814 q 323 945 163 927 q 567 911 484 962 q 673 764 650 859 q 601 532 701 653 l 92 68 l 678 68 l 678 0 l 0 0 l 0 68 l 5 68 l -1 75 l 555 583 l 555 582 z "},"3":{"ha":746,"x_min":33,"x_max":696,"o":"m 486 475 l 497 472 q 644 366 593 450 q 673 186 696 282 q 567 39 650 91 q 323 5 484 -12 q 33 111 163 23 l 66 169 q 336 72 198 85 q 533 96 475 58 q 608 202 591 134 q 587 330 624 271 q 483 406 551 389 q 136 441 336 441 l 136 509 q 484 544 336 509 q 588 619 551 560 q 608 747 625 679 q 534 853 592 816 q 337 878 475 891 q 67 781 199 864 l 34 838 q 324 944 163 926 q 568 910 484 962 q 674 763 651 859 q 645 584 696 667 q 498 477 593 500 l 486 475 l 486 475 z "},"4":{"ha":746,"x_min":0,"x_max":678,"o":"m 543 844 l 86 237 l 543 237 l 543 844 m 543 170 l 0 170 l 0 237 l 3 237 l 527 949 l 610 949 l 610 237 l 678 237 l 678 170 l 610 170 l 610 0 l 543 0 l 543 170 z "},"5":{"ha":746,"x_min":0,"x_max":678,"o":"m 102 949 l 610 949 l 610 882 l 158 882 l 101 583 l 102 585 l 104 583 q 339 678 202 678 q 579 579 479 678 q 678 339 678 479 q 579 99 678 199 q 339 0 479 0 q 99 99 199 0 q 0 339 0 199 l 68 339 q 147 147 68 227 q 339 68 227 68 q 531 147 452 68 q 610 339 610 227 q 531 531 610 452 q 339 610 452 610 q 147 531 227 610 l 146 532 l 83 469 l 18 506 l 102 949 z "},"6":{"ha":746,"x_min":0,"x_max":678,"o":"m 339 610 q 147 531 227 610 q 68 339 68 452 q 147 147 68 227 q 339 68 227 68 q 531 147 452 68 q 610 339 610 227 q 531 531 610 452 q 339 610 452 610 m 98 577 q 100 579 98 578 q 339 678 199 678 q 579 579 479 678 q 678 339 678 479 q 579 99 678 199 q 339 0 479 0 q 99 99 199 0 q 0 339 0 199 q 509 949 0 949 l 543 882 q 98 577 187 882 z "},"7":{"ha":746,"x_min":0,"x_max":678,"o":"m 592 882 l 0 882 l 0 949 l 678 949 l 678 882 l 675 882 l 86 0 l 3 0 l 592 882 z "},"8":{"ha":644,"x_min":0,"x_max":576,"o":"m 288 509 q 132 444 197 509 q 68 288 68 380 q 132 132 68 197 q 288 68 197 68 q 444 132 380 68 q 509 288 509 197 q 444 444 509 380 q 288 509 380 509 m 288 882 q 180 837 225 882 q 136 729 136 792 q 180 621 136 666 q 288 576 225 576 q 396 621 351 576 q 441 729 441 666 q 396 837 441 792 q 288 882 351 882 m 415 548 q 492 492 456 528 q 576 288 576 408 q 492 84 576 169 q 288 0 408 0 q 84 84 169 0 q 0 288 0 169 q 85 492 0 408 q 161 548 120 528 q 132 573 146 559 q 68 729 68 637 q 132 885 68 821 q 288 949 197 949 q 444 885 380 949 q 509 729 509 821 q 444 573 509 637 q 415 548 430 559 z "},"9":{"ha":746,"x_min":0,"x_max":678,"o":"m 339 339 q 531 418 452 339 q 610 610 610 498 q 531 802 610 723 q 339 882 452 882 q 147 802 227 882 q 68 610 68 723 q 147 418 68 498 q 339 339 227 339 m 581 372 q 579 371 580 372 q 339 271 479 271 q 99 371 199 271 q 0 610 0 470 q 99 850 0 751 q 339 949 199 949 q 579 850 479 949 q 678 610 678 751 q 170 0 678 0 l 136 68 q 581 372 491 68 z "},"\u0000":{"ha":0,"x_min":0,"x_max":0,"o":""}," ":{"ha":345,"x_min":0,"x_max":0,"o":""},"!":{"ha":136,"x_min":0,"x_max":68,"o":"m 0 237 l 0 949 l 68 949 l 68 237 l 0 237 m 68 68 l 68 0 l 0 0 l 0 68 l 68 68 z "},"\"":{"ha":237,"x_min":0,"x_max":170,"o":"m 0 780 l 68 780 l 68 949 l 0 949 l 0 780 m 102 780 l 170 780 l 170 949 l 102 949 l 102 780 z "},"#":{"ha":543,"x_min":0,"x_max":475,"o":"m 70 271 l 134 678 l 34 678 l 34 746 l 144 746 l 203 1119 l 271 1119 l 212 746 l 348 746 l 407 1119 l 475 1119 l 416 746 l 475 746 l 475 678 l 405 678 l 341 271 l 441 271 l 441 203 l 330 203 l 271 -170 l 203 -170 l 262 203 l 127 203 l 68 -170 l 0 -170 l 59 203 l 0 203 l 0 271 l 70 271 m 201 678 l 138 271 l 273 271 l 337 678 l 201 678 z "},"$":{"ha":746,"x_min":-19,"x_max":696,"o":"m 407 1 q 323 5 368 1 q 271 13 297 8 l 271 -34 l 203 -34 l 203 30 q 33 111 113 57 l 66 169 q 203 102 134 126 l 203 473 l 180 478 q 33 584 84 500 q 3 764 -19 668 q 110 911 26 859 q 203 943 149 935 l 203 983 l 271 983 l 271 949 q 354 945 309 949 q 407 937 380 942 l 407 983 l 475 983 l 475 920 q 644 839 565 892 l 610 781 q 475 848 543 824 l 475 477 l 497 472 q 644 366 593 450 q 673 186 696 282 q 567 39 650 91 q 475 7 529 16 l 475 -34 l 407 -34 l 407 1 m 203 876 q 144 854 168 869 q 69 748 85 817 q 90 620 53 680 q 194 545 126 561 l 203 543 l 203 876 m 271 526 l 407 494 l 407 867 q 340 878 374 875 q 271 882 303 882 l 271 526 m 475 75 q 533 96 510 81 q 608 202 591 134 q 587 330 624 271 q 483 406 551 389 l 475 408 l 475 75 m 271 82 q 336 72 304 75 q 407 68 375 68 l 407 424 l 271 456 l 271 82 z "},"%":{"ha":543,"x_min":0,"x_max":475,"o":"m 0 -170 l 407 1119 l 475 1119 l 68 -170 l 0 -170 m 119 949 q 202 915 168 949 q 237 831 237 880 q 202 747 237 782 q 119 712 168 712 q 35 747 69 712 q 0 831 0 782 q 35 915 0 880 q 119 949 69 949 m 119 882 q 83 867 98 882 q 68 831 68 852 q 83 795 68 810 q 119 780 98 780 q 155 795 140 780 q 170 831 170 810 q 155 867 170 852 q 119 882 140 882 m 356 237 q 440 203 405 237 q 475 119 475 168 q 440 35 475 70 q 356 0 405 0 q 272 35 307 0 q 237 119 237 70 q 272 203 237 168 q 356 237 307 237 m 356 170 q 320 155 335 170 q 305 119 305 140 q 320 83 305 98 q 356 68 335 68 q 392 83 377 68 q 407 119 407 98 q 392 155 407 140 q 356 170 377 170 z "},"&":{"ha":746,"x_min":18,"x_max":681,"o":"m 441 82 q 648 169 546 104 l 681 111 q 391 5 551 23 q 147 39 231 -12 q 41 186 64 91 q 70 366 18 282 q 217 472 121 450 l 229 475 l 228 475 l 216 477 q 69 584 121 500 q 40 763 18 667 q 146 910 63 859 q 390 944 230 962 q 680 838 551 926 l 647 781 q 377 878 515 864 q 180 853 239 891 q 106 747 122 816 q 126 619 90 679 q 231 544 163 560 q 373 519 296 528 l 373 644 l 441 644 l 441 513 q 578 509 506 509 l 578 441 q 441 436 506 441 l 441 82 m 373 430 q 231 406 297 421 q 127 330 163 389 q 106 202 90 271 q 181 96 123 134 q 373 71 239 59 l 373 430 z "},"'":{"ha":136,"x_min":0,"x_max":68,"o":"m 0 780 l 68 780 l 68 949 l 0 949 l 0 780 z "},"(":{"ha":305,"x_min":0,"x_max":237,"o":"m 68 475 q 68 763 68 475 q 237 1051 68 1051 l 237 1119 q 0 475 0 1119 q 237 -170 0 -170 l 237 -102 q 68 475 68 -102 z "},")":{"ha":305,"x_min":0,"x_max":237,"o":"m 170 475 q 170 186 170 475 q 0 -102 170 -102 l 0 -170 q 237 475 237 -170 q 0 1119 237 1119 l 0 1051 q 170 475 170 1051 z "},"*":{"ha":407,"x_min":5,"x_max":334,"o":"m 300 666 l 334 724 l 237 780 l 334 836 l 300 894 l 203 838 l 203 949 l 136 949 l 136 838 l 39 894 l 5 836 l 102 780 l 5 724 l 39 666 l 136 722 l 136 610 l 203 610 l 203 722 l 300 666 z "},"+":{"ha":407,"x_min":0,"x_max":339,"o":"m 136 305 l 203 305 l 203 441 l 339 441 l 339 509 l 203 509 l 203 644 l 136 644 l 136 509 l 0 509 l 0 441 l 136 441 l 136 305 z "},",":{"ha":136,"x_min":0,"x_max":68,"o":"m 0 -102 l 68 -102 l 68 68 l 0 68 l 0 -102 z "},"-":{"ha":407,"x_min":0,"x_max":339,"o":"m 0 441 l 339 441 l 339 509 l 0 509 l 0 441 z "},".":{"ha":136,"x_min":0,"x_max":68,"o":"m 0 0 l 68 0 l 68 68 l 0 68 l 0 0 z "},"/":{"ha":543,"x_min":0,"x_max":475,"o":"m 0 -170 l 407 1119 l 475 1119 l 68 -170 l 0 -170 z "},":":{"ha":136,"x_min":0,"x_max":68,"o":"m 0 271 l 68 271 l 68 339 l 0 339 l 0 271 m 0 610 l 68 610 l 68 678 l 0 678 l 0 610 z "},";":{"ha":136,"x_min":0,"x_max":68,"o":"m 0 170 l 68 170 l 68 339 l 0 339 l 0 170 m 0 610 l 68 610 l 68 678 l 0 678 l 0 610 z "},"<":{"ha":406,"x_min":0,"x_max":339,"o":"m 339 584 l 83 474 l 339 364 l 339 290 l 0 436 l 0 513 l 339 658 l 339 584 z "},"=":{"ha":407,"x_min":0,"x_max":339,"o":"m 0 543 l 339 543 l 339 610 l 0 610 l 0 543 m 0 339 l 339 339 l 339 407 l 0 407 l 0 339 z "},">":{"ha":406,"x_min":0,"x_max":339,"o":"m 0 364 l 256 475 l 0 584 l 0 658 l 339 513 l 339 436 l 0 290 l 0 364 z "},"?":{"ha":746,"x_min":-5,"x_max":696,"o":"m -3 237 q 33 366 -5 304 q 180 472 84 450 l 483 545 q 587 620 551 561 q 608 748 624 680 q 533 854 591 817 q 336 878 475 892 q 66 781 198 865 l 33 839 q 323 945 163 927 q 567 911 484 962 q 673 764 650 859 q 644 584 696 668 q 497 478 593 500 l 194 406 q 90 330 126 389 q 64 237 62 286 l -3 237 m 0 0 l 0 68 l 68 68 l 68 0 l 0 0 z "},"@":{"ha":1017,"x_min":0,"x_max":949,"o":"m 475 746 q 283 667 362 746 q 203 475 203 587 q 283 283 203 362 q 475 203 362 203 q 667 283 587 203 q 746 475 746 362 q 667 667 746 587 q 475 746 587 746 m 746 779 q 475 882 632 882 q 187 763 306 882 q 68 475 68 644 q 187 187 68 306 q 475 68 306 68 q 746 171 632 68 l 746 305 q 715 235 732 252 q 475 136 615 136 q 235 235 334 136 q 136 475 136 334 q 235 714 136 615 q 475 814 334 814 q 715 715 615 814 q 746 644 732 697 l 746 779 m 814 248 q 882 475 882 347 q 814 701 882 602 l 814 248 m 810 810 q 880 741 810 810 q 949 475 949 671 q 810 139 949 278 q 475 0 671 0 q 139 139 278 0 q 0 475 0 278 q 139 810 0 671 q 475 949 278 949 q 810 810 671 949 z "},"A":{"ha":949,"x_min":-3,"x_max":888,"o":"m 443 867 l 216 339 l 669 339 l 443 867 m 187 271 l 71 0 l -3 0 l 404 949 l 481 949 l 888 0 l 814 0 l 698 271 l 187 271 z "},"B":{"ha":746,"x_min":0,"x_max":678,"o":"m 424 441 l 68 441 l 68 68 l 424 68 q 556 122 501 68 q 610 254 610 177 q 556 386 610 332 q 424 441 501 441 m 424 509 q 556 563 501 509 q 610 695 610 618 q 556 827 610 772 q 424 882 501 882 l 68 882 l 68 509 l 424 509 m 424 949 q 604 875 529 949 q 678 695 678 800 q 604 515 678 590 q 552 475 579 491 q 604 434 579 458 q 678 254 678 359 q 604 75 678 149 q 424 0 529 0 l 0 0 l 0 949 l 424 949 z "},"C":{"ha":882,"x_min":0,"x_max":810,"o":"m 763 763 l 810 810 q 475 949 671 949 q 139 810 278 949 q 0 475 0 671 q 139 139 0 278 q 475 0 278 0 q 810 139 671 0 l 763 187 q 475 68 644 68 q 187 187 306 68 q 68 475 68 306 q 187 763 68 644 q 475 882 306 882 q 763 763 644 882 z "},"D":{"ha":882,"x_min":0,"x_max":814,"o":"m 68 882 l 68 68 l 339 68 q 627 187 508 68 q 746 475 746 306 q 627 763 746 644 q 339 882 508 882 l 68 882 m 0 0 l 0 949 l 339 949 q 675 810 536 949 q 814 475 814 671 q 675 139 814 278 q 339 0 536 0 l 0 0 z "},"E":{"ha":746,"x_min":0,"x_max":678,"o":"m 678 949 l 0 949 l 0 0 l 678 0 l 678 68 l 68 68 l 68 441 l 543 441 l 543 509 l 68 509 l 68 882 l 678 882 l 678 949 z "},"F":{"ha":746,"x_min":0,"x_max":678,"o":"m 678 949 l 0 949 l 0 0 l 68 0 l 68 441 l 543 441 l 543 509 l 68 509 l 68 882 l 678 882 l 678 949 z "},"G":{"ha":882,"x_min":0,"x_max":814,"o":"m 814 0 l 746 0 l 746 84 q 475 0 628 0 q 139 139 278 0 q 0 475 0 278 q 139 810 0 671 q 475 949 278 949 q 810 810 671 949 l 763 763 q 475 882 644 882 q 187 763 306 882 q 68 475 68 644 q 187 187 68 306 q 475 68 306 68 q 746 171 632 68 l 746 441 l 441 441 l 441 509 l 814 509 l 814 0 z "},"H":{"ha":746,"x_min":0,"x_max":678,"o":"m 610 441 l 68 441 l 68 0 l 0 0 l 0 949 l 68 949 l 68 509 l 610 509 l 610 949 l 678 949 l 678 0 l 610 0 l 610 441 z "},"I":{"ha":136,"x_min":0,"x_max":68,"o":"m 68 949 l 68 0 l 0 0 l 0 949 l 68 949 z "},"J":{"ha":644,"x_min":-2,"x_max":576,"o":"m 45 147 q 237 68 125 68 q 429 147 350 68 q 509 339 509 227 l 509 949 l 576 949 l 576 339 q 477 99 576 199 q 237 0 378 0 q -2 100 97 0 l 45 147 z "},"K":{"ha":746,"x_min":0,"x_max":678,"o":"m 68 387 l 68 0 l 0 0 l 0 949 l 68 949 l 68 477 l 580 949 l 678 949 l 678 949 l 255 559 l 677 0 l 592 0 l 205 513 l 68 387 z "},"L":{"ha":746,"x_min":0,"x_max":678,"o":"m 0 949 l 0 0 l 678 0 l 678 68 l 68 68 l 68 949 l 0 949 z "},"M":{"ha":1017,"x_min":0,"x_max":949,"o":"m 475 195 l 68 842 l 68 0 l 0 0 l 0 949 l 81 949 l 475 323 l 869 949 l 949 949 l 949 0 l 882 0 l 882 842 l 475 195 z "},"N":{"ha":746,"x_min":0,"x_max":678,"o":"m 610 108 l 610 949 l 678 949 l 678 0 l 597 0 l 68 842 l 68 0 l 0 0 l 0 949 l 81 949 l 610 108 z "},"O":{"ha":1017,"x_min":0,"x_max":949,"o":"m 475 949 q 810 810 671 949 q 949 475 949 671 q 810 139 949 278 q 475 0 671 0 q 139 139 278 0 q 0 475 0 278 q 139 810 0 671 q 475 949 278 949 m 475 882 q 187 763 306 882 q 68 475 68 644 q 187 187 68 306 q 475 68 306 68 q 763 187 644 68 q 882 475 882 306 q 763 763 882 644 q 475 882 644 882 z "},"P":{"ha":746,"x_min":0,"x_max":678,"o":"m 68 882 l 68 509 l 424 509 q 556 563 501 509 q 610 695 610 618 q 556 827 610 772 q 424 882 501 882 l 68 882 m 68 441 l 68 0 l 0 0 l 0 949 l 424 949 q 604 875 529 949 q 678 695 678 800 q 604 515 678 590 q 424 441 529 441 l 68 441 z "},"Q":{"ha":1017,"x_min":0,"x_max":953,"o":"m 787 213 q 882 475 882 324 q 763 763 882 644 q 475 882 644 882 q 187 763 306 882 q 68 475 68 644 q 187 187 68 306 q 475 68 306 68 q 739 165 627 68 l 604 299 l 652 347 l 787 213 m 787 117 q 475 0 655 0 q 139 139 278 0 q 0 475 0 278 q 139 810 0 671 q 475 949 278 949 q 810 810 671 949 q 949 475 949 671 q 835 165 949 296 l 953 48 l 905 0 l 787 117 z "},"R":{"ha":746,"x_min":0,"x_max":684,"o":"m 346 441 l 68 441 l 68 0 l 0 0 l 0 949 l 424 949 q 604 875 529 949 q 678 695 678 800 q 604 515 678 590 q 425 441 529 441 l 684 0 l 605 0 l 346 441 m 424 509 q 556 563 501 509 q 610 695 610 618 q 556 827 610 772 q 424 882 501 882 l 68 882 l 68 509 l 424 509 z "},"S":{"ha":746,"x_min":-19,"x_max":696,"o":"m 483 406 l 180 478 q 33 584 84 500 q 3 764 -19 668 q 110 911 26 859 q 354 945 193 962 q 644 839 514 927 l 610 781 q 340 878 479 865 q 144 854 202 892 q 69 748 85 817 q 90 620 53 680 q 194 545 126 561 l 497 472 q 644 366 593 450 q 673 186 696 282 q 567 39 650 91 q 323 5 484 -12 q 33 111 163 23 l 66 169 q 336 72 198 85 q 533 96 475 58 q 608 202 591 134 q 587 330 624 271 q 483 406 551 389 z "},"T":{"ha":746,"x_min":0,"x_max":678,"o":"m 678 949 l 0 949 l 1 882 l 305 882 l 305 0 l 373 0 l 373 882 l 678 882 l 678 949 z "},"U":{"ha":746,"x_min":0,"x_max":678,"o":"m 0 339 l 0 949 l 68 949 l 68 339 q 147 147 68 227 q 339 68 227 68 q 531 147 452 68 q 610 339 610 227 l 610 949 l 678 949 l 678 339 q 579 99 678 199 q 339 0 479 0 q 99 99 199 0 q 0 339 0 199 z "},"V":{"ha":949,"x_min":-3,"x_max":888,"o":"m 814 949 l 888 949 l 481 0 l 404 0 l -3 949 l 71 949 l 443 83 l 814 949 z "},"W":{"ha":1458,"x_min":-3,"x_max":1390,"o":"m 694 669 l 814 949 l 888 949 l 731 583 l 945 83 l 1316 949 l 1390 949 l 983 0 l 907 0 l 694 497 l 481 0 l 404 0 l -3 949 l 71 949 l 443 83 l 657 583 l 500 949 l 574 949 l 694 669 z "},"X":{"ha":746,"x_min":1,"x_max":677,"o":"m 299 475 l 1 949 l 81 949 l 339 538 l 597 949 l 677 949 l 379 475 l 677 0 l 597 0 l 339 411 l 81 0 l 1 0 l 299 475 z "},"Y":{"ha":746,"x_min":1,"x_max":677,"o":"m 373 465 l 373 0 l 305 0 l 305 465 l 299 475 l 1 949 l 81 949 l 339 538 l 597 949 l 677 949 l 379 475 l 373 465 z "},"Z":{"ha":746,"x_min":0,"x_max":678,"o":"m 592 882 l 0 882 l 0 949 l 678 949 l 678 882 l 675 882 l 86 68 l 678 68 l 678 0 l 0 0 l 0 68 l 3 68 l 592 882 z "},"[":{"ha":305,"x_min":0,"x_max":237,"o":"m 68 1051 l 237 1051 l 237 1119 l 0 1119 l 0 -170 l 237 -170 l 237 -102 l 68 -102 l 68 1051 z "},"\\":{"ha":543,"x_min":0,"x_max":475,"o":"m 407 -170 l 0 1119 l 68 1119 l 475 -170 l 407 -170 z "},"]":{"ha":305,"x_min":0,"x_max":237,"o":"m 170 -102 l 0 -102 l 0 -170 l 237 -170 l 237 1119 l 0 1119 l 0 1051 l 170 1051 l 170 -102 z "},"^":{"ha":305,"x_min":9,"x_max":231,"o":"m 9 780 l 81 949 l 158 949 l 231 780 l 157 780 l 120 867 l 83 780 l 9 780 z "},"_":{"ha":746,"x_min":0,"x_max":678,"o":"m 0 0 l 678 0 l 678 68 l 0 68 l 0 0 z "},"`":{"ha":136,"x_min":-28,"x_max":96,"o":"m 33 773 l 96 798 l 35 956 l -28 931 l 33 773 z "},"a":{"ha":746,"x_min":0,"x_max":678,"o":"m 339 610 q 147 531 227 610 q 68 339 68 452 q 147 147 68 227 q 339 68 227 68 q 531 147 452 68 q 610 339 610 227 q 531 531 610 452 q 339 610 452 610 m 610 170 q 579 100 596 117 q 339 0 479 0 q 99 99 199 0 q 0 339 0 199 q 99 579 0 479 q 339 678 199 678 q 579 579 479 678 q 610 509 596 562 l 610 678 l 678 678 l 678 0 l 610 0 l 610 170 z "},"b":{"ha":746,"x_min":0,"x_max":678,"o":"m 339 610 q 147 531 227 610 q 68 339 68 452 q 147 147 68 227 q 339 68 227 68 q 531 147 452 68 q 610 339 610 227 q 531 531 610 452 q 339 610 452 610 m 68 0 l 0 0 l 0 949 l 68 949 l 68 509 q 100 579 82 562 q 339 678 199 678 q 579 579 479 678 q 678 339 678 479 q 579 99 678 199 q 339 0 479 0 q 100 100 199 0 q 68 170 82 117 l 68 0 z "},"c":{"ha":644,"x_min":0,"x_max":579,"o":"m 531 531 l 579 579 q 339 678 479 678 q 99 579 199 678 q 0 339 0 479 q 99 99 0 199 q 339 0 199 0 q 579 99 479 0 l 531 147 q 339 68 451 68 q 147 147 227 68 q 68 339 68 227 q 147 531 68 451 q 339 610 227 610 q 531 531 451 610 z "},"d":{"ha":746,"x_min":0,"x_max":678,"o":"m 339 610 q 147 531 227 610 q 68 339 68 452 q 147 147 68 227 q 339 68 227 68 q 531 147 452 68 q 610 339 610 227 q 531 531 610 452 q 339 610 452 610 m 610 170 q 579 100 596 117 q 339 0 479 0 q 99 99 199 0 q 0 339 0 199 q 99 579 0 479 q 339 678 199 678 q 579 579 479 678 q 610 509 596 562 l 610 949 l 678 949 l 678 0 l 610 0 l 610 170 z "},"e":{"ha":746,"x_min":0,"x_max":678,"o":"m 608 373 q 531 531 598 464 q 339 610 452 610 q 147 531 227 610 q 70 373 80 464 l 608 373 m 99 579 q 112 591 192 671 q 339 678 208 678 q 579 579 479 678 q 678 339 678 479 l 678 305 l 70 305 q 147 147 80 214 q 339 68 227 68 q 531 147 451 68 l 579 99 q 339 0 479 0 q 99 99 199 0 q 0 339 0 199 q 87 566 0 471 q 99 579 7 486 z "},"f":{"ha":339,"x_min":0,"x_max":271,"o":"m 0 610 l 0 678 l 102 678 l 102 780 q 151 900 102 850 q 271 949 201 949 l 271 882 q 199 852 229 882 q 170 780 170 822 l 170 678 l 271 678 l 271 610 l 170 610 l 170 0 l 102 0 l 102 610 l 0 610 z "},"g":{"ha":746,"x_min":0,"x_max":678,"o":"m 531 147 q 571 187 531 147 q 610 339 610 227 q 531 531 610 452 q 339 610 452 610 q 147 531 227 610 q 68 339 68 452 q 147 147 68 227 q 339 68 227 68 q 531 147 452 68 m 610 68 l 610 170 q 579 100 596 117 q 339 0 479 0 q 99 99 199 0 q 0 339 0 199 q 99 579 0 479 q 339 678 199 678 q 579 579 479 678 q 610 509 596 562 l 610 678 l 678 678 l 678 68 q 579 -172 678 -73 q 339 -271 479 -271 q 99 -172 199 -271 l 147 -124 q 339 -203 227 -203 q 531 -124 452 -203 q 610 68 610 -45 z "},"h":{"ha":610,"x_min":0,"x_max":543,"o":"m 68 587 q 79 599 73 593 q 271 678 159 678 q 463 599 384 678 q 543 407 543 519 l 543 0 l 475 0 l 475 407 q 415 551 475 491 q 271 610 355 610 q 127 551 187 610 q 68 407 68 491 l 68 0 l 0 0 l 0 949 l 68 949 l 68 587 z "},"i":{"ha":136,"x_min":0,"x_max":68,"o":"m 68 678 l 68 0 l 0 0 l 0 678 l 68 678 m 0 780 l 0 848 l 68 848 l 68 780 l 0 780 z "},"j":{"ha":136,"x_min":-77,"x_max":71,"o":"m 3 68 l 3 678 l 71 678 l 71 68 q -28 -172 71 -73 l -77 -124 q 3 68 3 -45 m 71 848 l 71 780 l 3 780 l 3 848 l 71 848 z "},"k":{"ha":610,"x_min":0,"x_max":575,"o":"m 532 678 l 255 424 l 575 0 l 490 0 l 205 377 l 68 251 l 68 0 l 0 0 l 0 949 l 68 949 l 68 342 l 433 678 l 532 678 z "},"l":{"ha":136,"x_min":0,"x_max":68,"o":"m 68 0 l 0 0 l 0 949 l 68 949 l 68 0 z "},"m":{"ha":1085,"x_min":0,"x_max":1017,"o":"m 475 407 q 415 551 475 491 q 271 610 355 610 q 127 551 187 610 q 68 407 68 491 l 68 0 l 0 0 l 0 678 l 68 678 l 68 587 q 79 599 73 593 q 271 678 159 678 q 463 599 384 678 q 509 540 491 571 q 554 599 526 571 q 746 678 633 678 q 938 599 859 678 q 1017 407 1017 519 l 1017 0 l 949 0 l 949 407 q 890 551 949 491 q 746 610 830 610 q 602 551 662 610 q 543 407 543 491 l 543 0 l 475 0 l 475 407 z "},"n":{"ha":610,"x_min":0,"x_max":543,"o":"m 0 678 l 68 678 l 68 587 q 79 599 73 593 q 271 678 159 678 q 463 599 384 678 q 543 407 543 519 l 543 0 l 475 0 l 475 407 q 415 551 475 491 q 271 610 355 610 q 127 551 187 610 q 68 407 68 491 l 68 0 l 0 0 l 0 678 z "},"o":{"ha":746,"x_min":0,"x_max":678,"o":"m 339 0 q 99 99 199 0 q 0 339 0 199 q 99 579 0 479 q 339 678 199 678 q 579 579 479 678 q 678 339 678 479 q 579 99 678 199 q 339 0 479 0 m 339 610 q 147 531 227 610 q 68 339 68 452 q 147 147 68 227 q 339 68 227 68 q 531 147 452 68 q 610 339 610 227 q 531 531 610 452 q 339 610 452 610 z "},"p":{"ha":746,"x_min":0,"x_max":678,"o":"m 339 68 q 531 147 452 68 q 610 339 610 227 q 531 531 610 452 q 339 610 452 610 q 147 531 227 610 q 68 339 68 452 q 147 147 68 227 q 339 68 227 68 m 68 509 q 100 579 82 562 q 339 678 199 678 q 579 579 479 678 q 678 339 678 479 q 579 99 678 199 q 339 0 479 0 q 100 100 199 0 q 68 170 82 117 l 68 -271 l 0 -271 l 0 678 l 68 678 l 68 509 z "},"q":{"ha":746,"x_min":0,"x_max":678,"o":"m 339 68 q 531 147 452 68 q 610 339 610 227 q 531 531 610 452 q 339 610 452 610 q 147 531 227 610 q 68 339 68 452 q 147 147 68 227 q 339 68 227 68 m 610 678 l 678 678 l 678 -271 l 610 -271 l 610 170 q 579 100 596 117 q 339 0 479 0 q 99 99 199 0 q 0 339 0 199 q 99 579 0 479 q 339 678 199 678 q 579 579 479 678 q 610 509 596 562 l 610 678 z "},"r":{"ha":407,"x_min":0,"x_max":343,"o":"m 330 602 q 271 610 302 610 q 127 551 187 610 q 68 407 68 491 l 68 0 l 0 0 l 0 678 l 68 678 l 68 576 q 79 599 73 593 q 271 678 159 678 q 343 669 309 678 l 330 602 z "},"s":{"ha":561,"x_min":-12,"x_max":520,"o":"m 355 291 l 138 343 q 27 422 66 359 q 5 558 -12 486 q 85 669 22 630 q 265 695 147 708 q 485 612 383 682 l 452 557 q 255 630 352 621 q 119 614 158 640 q 69 543 80 589 q 83 457 58 496 q 153 406 107 418 l 370 355 q 481 275 442 338 q 503 140 520 212 q 423 28 486 67 q 243 3 361 -10 q 23 85 125 16 l 56 140 q 253 67 156 77 q 389 83 350 58 q 439 155 429 109 q 425 240 450 201 q 355 291 401 279 z "},"t":{"ha":339,"x_min":0,"x_max":271,"o":"m 102 678 l 102 949 l 170 949 l 170 678 l 271 678 l 271 610 l 170 610 l 170 170 q 199 98 170 127 q 271 68 229 68 l 271 0 q 151 50 201 0 q 102 170 102 99 l 102 610 l 0 610 l 0 678 l 102 678 z "},"u":{"ha":610,"x_min":0,"x_max":543,"o":"m 543 0 l 475 0 l 475 92 q 463 79 469 85 q 271 0 384 0 q 79 79 159 0 q 0 271 0 159 l 0 678 l 68 678 l 68 271 q 127 127 68 187 q 271 68 187 68 q 415 127 355 68 q 475 271 475 187 l 475 678 l 543 678 l 543 0 z "},"v":{"ha":746,"x_min":0,"x_max":659,"o":"m 75 678 l 330 83 l 585 678 l 659 678 l 368 0 l 291 0 l 0 678 l 75 678 z "},"w":{"ha":1322,"x_min":0,"x_max":1242,"o":"m 621 591 l 368 0 l 291 0 l 0 678 l 75 678 l 330 83 l 584 677 l 583 678 l 659 678 l 658 677 l 913 83 l 1168 678 l 1242 678 l 951 0 l 874 0 l 621 591 z "},"x":{"ha":576,"x_min":0,"x_max":506,"o":"m 506 678 l 293 339 l 506 0 l 426 0 l 253 275 l 80 0 l 0 0 l 213 339 l 0 678 l 80 678 l 253 403 l 426 678 l 506 678 z "},"y":{"ha":746,"x_min":0,"x_max":659,"o":"m 291 0 l 0 678 l 75 678 l 330 83 l 585 678 l 659 678 l 250 -271 l 176 -271 l 291 0 z "},"z":{"ha":543,"x_min":0,"x_max":475,"o":"m 389 610 l 0 610 l 0 678 l 475 678 l 475 610 l 472 610 l 86 68 l 475 68 l 475 0 l 0 0 l 0 68 l 3 68 l 389 610 z "},"{":{"ha":373,"x_min":0,"x_max":305,"o":"m 68 509 q 305 1119 74 1119 l 305 1051 q 136 475 136 1051 q 305 -102 136 -102 l 305 -170 q 68 441 74 -170 l 0 441 l 0 509 l 68 509 z "},"|":{"ha":136,"x_min":0,"x_max":68,"o":"m 68 1119 l 68 -170 l 0 -170 l 0 1119 l 68 1119 z "},"}":{"ha":373,"x_min":0,"x_max":305,"o":"m 305 509 l 305 441 l 237 441 q 0 -170 231 -170 l 0 -102 q 170 475 170 -102 q 0 1051 170 1051 l 0 1119 q 237 509 231 1119 l 305 509 z "},"~":{"ha":407,"x_min":0,"x_max":339,"o":"m 0 441 q 170 441 102 475 q 339 441 237 407 l 339 509 q 170 509 237 475 q 0 509 102 543 l 0 441 z "},"¡":{"ha":136,"x_min":0,"x_max":68,"o":"m 68 457 l 68 -255 l 0 -255 l 0 457 l 68 457 m 0 627 l 0 694 l 68 694 l 68 627 l 0 627 z "},"¢":{"ha":746,"x_min":122,"x_max":701,"o":"m 678 1017 l 610 1017 l 503 676 q 461 678 482 678 q 221 579 321 678 q 122 339 122 479 q 221 99 122 199 q 301 39 258 62 l 203 -271 l 271 -271 l 361 14 q 461 0 408 0 q 701 99 602 0 l 653 147 q 461 68 573 68 q 382 79 419 68 l 546 597 q 653 531 605 578 l 701 579 q 566 663 641 639 l 678 1017 m 322 105 q 269 147 294 122 q 190 339 190 227 q 269 531 190 451 q 461 610 349 610 q 481 610 471 610 l 322 105 z "},"£":{"ha":745,"x_min":0,"x_max":678,"o":"m 68 543 l 68 610 q 167 850 68 751 q 407 949 267 949 q 646 850 547 949 l 599 802 q 407 882 519 882 q 215 802 294 882 q 136 610 136 723 l 136 543 l 543 543 l 543 475 l 136 475 l 136 407 l 543 407 l 543 339 l 136 339 l 136 68 l 678 68 l 678 0 l 0 0 l 0 68 l 68 68 l 68 339 l 0 339 l 0 407 l 68 407 l 68 475 l 0 475 l 0 543 l 68 543 z "},"¥":{"ha":746,"x_min":1,"x_max":677,"o":"m 305 339 l 305 465 l 299 475 l 1 949 l 81 949 l 339 538 l 597 949 l 677 949 l 379 475 l 373 465 l 373 339 l 610 339 l 610 271 l 373 271 l 373 203 l 610 203 l 610 136 l 373 136 l 373 0 l 305 0 l 305 136 l 68 136 l 68 203 l 305 203 l 305 271 l 68 271 l 68 339 l 305 339 z "},"¦":{"ha":136,"x_min":0,"x_max":68,"o":"m 68 973 l 68 419 l 0 419 l 0 973 l 68 973 m 68 276 l 68 -278 l 0 -278 l 0 276 l 68 276 z "},"¨":{"ha":237,"x_min":0,"x_max":170,"o":"m 0 882 l 68 882 l 68 949 l 0 949 l 0 882 m 102 882 l 170 882 l 170 949 l 102 949 l 102 882 z "},"©":{"ha":1017,"x_min":0,"x_max":949,"o":"m 475 949 q 810 810 671 949 q 949 475 949 671 q 810 139 949 278 q 475 0 671 0 q 139 139 278 0 q 0 475 0 278 q 139 810 0 671 q 475 949 278 949 m 475 882 q 187 763 306 882 q 68 475 68 644 q 187 187 68 306 q 475 68 306 68 q 763 187 644 68 q 882 475 882 306 q 763 763 882 644 q 475 882 644 882 m 667 667 l 715 715 q 475 814 615 814 q 235 715 334 814 q 136 475 136 615 q 235 235 136 334 q 475 136 334 136 q 715 235 615 136 l 667 283 q 475 203 587 203 q 283 283 363 203 q 203 475 203 363 q 283 667 203 587 q 475 746 363 746 q 667 667 587 746 z "},"«":{"ha":705,"x_min":-1,"x_max":637,"o":"m 339 584 l 83 474 l 339 364 l 339 290 l 0 436 l 0 513 l 339 658 l 339 584 m 637 584 l 381 474 l 637 364 l 637 290 l 298 436 l 298 513 l 637 658 l 637 584 z "},"®":{"ha":1017,"x_min":0,"x_max":949,"o":"m 560 499 q 655 538 616 499 q 694 632 694 577 q 655 727 694 688 q 560 766 616 766 l 306 766 l 306 499 l 560 499 m 732 159 q 763 187 748 172 q 882 475 882 306 q 763 763 882 644 q 475 882 644 882 q 187 763 306 882 q 68 475 68 644 q 187 187 68 306 q 475 68 306 68 q 701 136 602 68 l 690 136 l 505 450 l 306 450 l 306 136 l 258 136 l 258 814 l 560 814 q 689 761 635 814 q 742 632 742 707 q 689 504 742 557 q 561 450 635 450 l 732 159 m 810 810 q 880 741 810 810 q 949 475 949 671 q 810 139 949 278 q 475 0 671 0 q 139 139 278 0 q 0 475 0 278 q 139 810 0 671 q 475 949 278 949 q 810 810 671 949 z "},"¯":{"ha":407,"x_min":0,"x_max":339,"o":"m 0 864 l 339 864 l 339 932 l 0 932 l 0 864 z "},"°":{"ha":271,"x_min":0,"x_max":203,"o":"m 102 949 q 174 920 144 949 q 203 848 203 890 q 174 776 203 806 q 102 746 144 746 q 30 776 60 746 q 0 848 0 806 q 30 920 0 890 q 102 949 60 949 m 102 882 q 78 872 87 882 q 68 848 68 862 q 78 824 68 833 q 102 814 87 814 q 126 824 116 814 q 136 848 136 833 q 126 872 136 862 q 102 882 116 882 z "},"±":{"ha":407,"x_min":0,"x_max":339,"o":"m 136 305 l 136 441 l 0 441 l 0 509 l 136 509 l 136 644 l 203 644 l 203 509 l 339 509 l 339 441 l 203 441 l 203 305 l 339 305 l 339 237 l 0 237 l 0 305 l 136 305 z "},"´":{"ha":136,"x_min":-28,"x_max":96,"o":"m 96 931 l 33 956 l -28 798 l 35 773 l 96 931 z "},"µ":{"ha":610,"x_min":0,"x_max":543,"o":"m 475 92 q 463 79 469 85 q 271 0 384 0 q 79 79 159 0 q 68 92 73 85 l 68 -271 l 0 -271 l 0 678 l 68 678 l 68 271 q 127 127 68 187 q 271 68 187 68 q 415 127 355 68 q 475 271 475 187 l 475 678 l 543 678 l 543 0 l 475 0 l 475 92 z "},"·":{"ha":345,"x_min":0,"x_max":58,"o":"m 0 458 l 58 458 l 58 515 l 0 515 l 0 458 z "},"¸":{"ha":203,"x_min":0,"x_max":136,"o":"m 0 68 l 0 -102 q 68 -119 68 -102 q 68 -153 68 -136 q 0 -170 68 -170 l 0 -237 q 136 -136 136 -237 q 68 -34 136 -34 l 68 68 l 0 68 z "},"º":{"ha":271,"x_min":0,"x_max":203,"o":"m 102 949 q 174 920 144 949 q 203 848 203 890 q 174 776 203 806 q 102 746 144 746 q 30 776 60 746 q 0 848 0 806 q 30 920 0 890 q 102 949 60 949 m 102 882 q 78 872 87 882 q 68 848 68 862 q 78 824 68 833 q 102 814 87 814 q 126 824 116 814 q 136 848 136 833 q 126 872 136 862 q 102 882 116 882 z "},"»":{"ha":705,"x_min":-1,"x_max":637,"o":"m 0 364 l 256 475 l 0 584 l 0 658 l 339 513 l 339 436 l 0 290 l 0 364 m 298 364 l 555 475 l 298 584 l 298 658 l 637 513 l 637 436 l 298 290 l 298 364 z "},"¿":{"ha":746,"x_min":-5,"x_max":696,"o":"m 694 457 q 659 328 696 390 q 511 222 607 245 l 208 150 q 104 75 140 134 q 83 -54 67 15 q 158 -160 100 -122 q 355 -184 216 -197 q 625 -87 493 -170 l 658 -144 q 368 -250 528 -233 q 124 -216 208 -268 q 18 -69 41 -165 q 47 110 -5 26 q 194 216 98 194 l 497 289 q 602 364 565 305 q 627 457 629 408 l 694 457 m 691 694 l 691 627 l 623 627 l 623 694 l 691 694 z "},"À":{"ha":949,"x_min":-3,"x_max":888,"o":"m 443 867 l 216 339 l 669 339 l 443 867 m 187 271 l 71 0 l -3 0 l 404 949 l 481 949 l 888 0 l 814 0 l 698 271 l 187 271 m 421 1051 l 484 1076 l 422 1234 l 359 1209 l 421 1051 z "},"Á":{"ha":949,"x_min":-3,"x_max":888,"o":"m 443 867 l 216 339 l 669 339 l 443 867 m 187 271 l 71 0 l -3 0 l 404 949 l 481 949 l 888 0 l 814 0 l 698 271 l 187 271 m 526 1209 l 463 1234 l 401 1076 l 464 1051 l 526 1209 z "},"Â":{"ha":949,"x_min":-3,"x_max":888,"o":"m 443 867 l 216 339 l 669 339 l 443 867 m 187 271 l 71 0 l -3 0 l 404 949 l 481 949 l 888 0 l 814 0 l 698 271 l 187 271 m 332 1058 l 404 1227 l 481 1227 l 553 1058 l 480 1058 l 443 1145 l 406 1058 l 332 1058 z "},"Ã":{"ha":949,"x_min":-3,"x_max":888,"o":"m 443 867 l 216 339 l 669 339 l 443 867 m 187 271 l 71 0 l -3 0 l 404 949 l 481 949 l 888 0 l 814 0 l 698 271 l 187 271 m 273 1143 q 443 1143 375 1177 q 612 1143 511 1109 l 612 1211 q 443 1211 511 1177 q 273 1211 375 1244 l 273 1143 z "},"Ä":{"ha":949,"x_min":-3,"x_max":888,"o":"m 443 867 l 216 339 l 669 339 l 443 867 m 187 271 l 71 0 l -3 0 l 404 949 l 481 949 l 888 0 l 814 0 l 698 271 l 187 271 m 358 1160 l 426 1160 l 426 1227 l 358 1227 l 358 1160 m 460 1160 l 528 1160 l 528 1227 l 460 1227 l 460 1160 z "},"Å":{"ha":949,"x_min":-3,"x_max":888,"o":"m 443 867 l 216 339 l 669 339 l 443 867 m 187 271 l 71 0 l -3 0 l 404 949 l 481 949 l 888 0 l 814 0 l 698 271 l 187 271 m 443 1227 q 515 1198 485 1227 q 545 1126 545 1168 q 515 1054 545 1084 q 443 1024 485 1024 q 371 1054 401 1024 q 341 1126 341 1084 q 371 1198 341 1168 q 443 1227 401 1227 m 443 1160 q 419 1150 429 1160 q 409 1126 409 1140 q 419 1102 409 1112 q 443 1092 429 1092 q 467 1102 457 1092 q 477 1126 477 1112 q 467 1150 477 1140 q 443 1160 457 1160 z "},"Æ":{"ha":1289,"x_min":-3,"x_max":1221,"o":"m 610 271 l 610 68 l 785 68 l 698 271 l 610 271 m 625 441 l 610 441 l 610 339 l 669 339 l 625 441 m 543 339 l 543 634 l 443 867 l 216 339 l 543 339 m 670 509 l 1085 509 l 1085 441 l 699 441 l 859 68 l 1221 68 l 1221 0 l 543 0 l 543 271 l 187 271 l 71 0 l -3 0 l 404 949 l 481 949 l 543 806 l 543 949 l 1221 949 l 1221 882 l 610 882 l 610 647 l 670 509 z "},"Ç":{"ha":882,"x_min":0,"x_max":810,"o":"m 338 -102 q 406 -119 406 -102 q 406 -153 406 -136 q 338 -170 406 -170 l 338 -237 q 473 -136 473 -237 q 406 -34 473 -34 l 406 5 q 475 0 439 0 q 810 139 671 0 l 763 187 q 475 68 644 68 q 187 187 306 68 q 68 475 68 306 q 187 763 68 644 q 475 882 306 882 q 763 763 644 882 l 810 810 q 475 949 671 949 q 139 810 278 949 q 0 475 0 671 q 139 139 0 278 q 338 19 227 51 l 338 -102 z "},"È":{"ha":746,"x_min":0,"x_max":678,"o":"m 678 949 l 0 949 l 0 0 l 678 0 l 678 68 l 68 68 l 68 441 l 543 441 l 543 509 l 68 509 l 68 882 l 678 882 l 678 949 m 317 1051 l 380 1076 l 319 1234 l 256 1209 l 317 1051 z "},"É":{"ha":746,"x_min":0,"x_max":678,"o":"m 678 949 l 0 949 l 0 0 l 678 0 l 678 68 l 68 68 l 68 441 l 543 441 l 543 509 l 68 509 l 68 882 l 678 882 l 678 949 m 422 1209 l 359 1234 l 298 1076 l 361 1051 l 422 1209 z "},"Ê":{"ha":746,"x_min":0,"x_max":678,"o":"m 678 949 l 0 949 l 0 0 l 678 0 l 678 68 l 68 68 l 68 441 l 543 441 l 543 509 l 68 509 l 68 882 l 678 882 l 678 949 m 229 1058 l 301 1227 l 378 1227 l 450 1058 l 377 1058 l 340 1145 l 302 1058 l 229 1058 z "},"Ë":{"ha":746,"x_min":0,"x_max":678,"o":"m 678 949 l 0 949 l 0 0 l 678 0 l 678 68 l 68 68 l 68 441 l 543 441 l 543 509 l 68 509 l 68 882 l 678 882 l 678 949 m 254 1160 l 322 1160 l 322 1227 l 254 1227 l 254 1160 m 356 1160 l 424 1160 l 424 1227 l 356 1227 l 356 1160 z "},"Ì":{"ha":136,"x_min":-50,"x_max":76,"o":"m 68 949 l 68 0 l 0 0 l 0 949 l 68 949 m 12 1051 l 75 1076 l 14 1234 l -50 1209 l 12 1051 z "},"Í":{"ha":136,"x_min":-8,"x_max":117,"o":"m 68 949 l 68 0 l 0 0 l 0 949 l 68 949 m 117 1209 l 54 1234 l -7 1076 l 56 1051 l 117 1209 z "},"Î":{"ha":136,"x_min":-77,"x_max":145,"o":"m 68 949 l 68 0 l 0 0 l 0 949 l 68 949 m -77 1058 l -4 1227 l 73 1227 l 145 1058 l 72 1058 l 35 1145 l -3 1058 l -77 1058 z "},"Ï":{"ha":136,"x_min":-51,"x_max":119,"o":"m 68 949 l 68 0 l 0 0 l 0 949 l 68 949 m -51 1160 l 17 1160 l 17 1227 l -51 1227 l -51 1160 m 51 1160 l 119 1160 l 119 1227 l 51 1227 l 51 1160 z "},"Ð":{"ha":1017,"x_min":0,"x_max":949,"o":"m 203 441 l 203 68 l 475 68 q 763 187 644 68 q 882 475 882 306 q 763 763 882 644 q 475 882 644 882 l 203 882 l 203 509 l 678 509 l 678 441 l 203 441 m 136 441 l 0 441 l 0 509 l 136 509 l 136 949 l 475 949 q 810 810 671 949 q 949 475 949 671 q 810 139 949 278 q 475 0 671 0 l 136 0 l 136 441 z "},"Ñ":{"ha":746,"x_min":0,"x_max":678,"o":"m 610 108 l 610 949 l 678 949 l 678 0 l 597 0 l 68 842 l 68 0 l 0 0 l 0 949 l 81 949 l 610 108 m 170 1143 q 339 1143 271 1177 q 509 1143 407 1109 l 509 1211 q 339 1211 407 1177 q 170 1211 271 1244 l 170 1143 z "},"Ò":{"ha":1017,"x_min":0,"x_max":949,"o":"m 475 949 q 810 810 671 949 q 949 475 949 671 q 810 139 949 278 q 475 0 671 0 q 139 139 278 0 q 0 475 0 278 q 139 810 0 671 q 475 949 278 949 m 475 882 q 187 763 306 882 q 68 475 68 644 q 187 187 68 306 q 475 68 306 68 q 763 187 644 68 q 882 475 882 306 q 763 763 882 644 q 475 882 644 882 m 453 1051 l 516 1076 l 454 1234 l 391 1209 l 453 1051 z "},"Ó":{"ha":1017,"x_min":0,"x_max":949,"o":"m 475 949 q 810 810 671 949 q 949 475 949 671 q 810 139 949 278 q 475 0 671 0 q 139 139 278 0 q 0 475 0 278 q 139 810 0 671 q 475 949 278 949 m 475 882 q 187 763 306 882 q 68 475 68 644 q 187 187 68 306 q 475 68 306 68 q 763 187 644 68 q 882 475 882 306 q 763 763 882 644 q 475 882 644 882 m 558 1209 l 495 1234 l 433 1076 l 496 1051 l 558 1209 z "},"Ô":{"ha":1017,"x_min":0,"x_max":949,"o":"m 475 949 q 810 810 671 949 q 949 475 949 671 q 810 139 949 278 q 475 0 671 0 q 139 139 278 0 q 0 475 0 278 q 139 810 0 671 q 475 949 278 949 m 475 882 q 187 763 306 882 q 68 475 68 644 q 187 187 68 306 q 475 68 306 68 q 763 187 644 68 q 882 475 882 306 q 763 763 882 644 q 475 882 644 882 m 364 1058 l 437 1227 l 513 1227 l 586 1058 l 513 1058 l 475 1145 l 438 1058 l 364 1058 z "},"Õ":{"ha":1017,"x_min":0,"x_max":949,"o":"m 475 949 q 810 810 671 949 q 949 475 949 671 q 810 139 949 278 q 475 0 671 0 q 139 139 278 0 q 0 475 0 278 q 139 810 0 671 q 475 949 278 949 m 475 882 q 187 763 306 882 q 68 475 68 644 q 187 187 68 306 q 475 68 306 68 q 763 187 644 68 q 882 475 882 306 q 763 763 882 644 q 475 882 644 882 m 305 1143 q 475 1143 407 1177 q 644 1143 543 1109 l 644 1211 q 475 1211 543 1177 q 305 1211 407 1244 l 305 1143 z "},"Ö":{"ha":1017,"x_min":0,"x_max":949,"o":"m 475 949 q 810 810 671 949 q 949 475 949 671 q 810 139 949 278 q 475 0 671 0 q 139 139 278 0 q 0 475 0 278 q 139 810 0 671 q 475 949 278 949 m 475 882 q 187 763 306 882 q 68 475 68 644 q 187 187 68 306 q 475 68 306 68 q 763 187 644 68 q 882 475 882 306 q 763 763 882 644 q 475 882 644 882 m 390 1160 l 458 1160 l 458 1227 l 390 1227 l 390 1160 m 492 1160 l 559 1160 l 559 1227 l 492 1227 l 492 1160 z "},"×":{"ha":407,"x_min":26,"x_max":313,"o":"m 265 331 l 313 379 l 218 475 l 313 570 l 265 618 l 170 523 l 74 618 l 26 570 l 121 475 l 26 379 l 74 331 l 170 427 l 265 331 z "},"Ø":{"ha":1017,"x_min":0,"x_max":949,"o":"m 383 77 q 475 68 427 68 q 763 187 644 68 q 882 475 882 306 q 763 763 882 644 q 628 853 702 823 l 383 77 m 321 96 l 566 872 q 475 882 522 882 q 187 763 306 882 q 68 475 68 644 q 187 187 68 306 q 321 96 248 126 m 648 918 q 810 810 737 884 q 949 475 949 671 q 810 139 949 278 q 475 0 671 0 q 363 12 416 0 l 305 -170 l 237 -170 l 301 31 q 139 139 212 66 q 0 475 0 278 q 139 810 0 671 q 475 949 278 949 q 587 937 533 949 l 644 1119 l 712 1119 l 648 918 z "},"Ù":{"ha":746,"x_min":0,"x_max":678,"o":"m 0 339 l 0 949 l 68 949 l 68 339 q 147 147 68 227 q 339 68 227 68 q 531 147 452 68 q 610 339 610 227 l 610 949 l 678 949 l 678 339 q 579 99 678 199 q 339 0 479 0 q 99 99 199 0 q 0 339 0 199 m 317 1051 l 380 1076 l 319 1234 l 256 1209 l 317 1051 z "},"Ú":{"ha":746,"x_min":0,"x_max":678,"o":"m 0 339 l 0 949 l 68 949 l 68 339 q 147 147 68 227 q 339 68 227 68 q 531 147 452 68 q 610 339 610 227 l 610 949 l 678 949 l 678 339 q 579 99 678 199 q 339 0 479 0 q 99 99 199 0 q 0 339 0 199 m 422 1209 l 359 1234 l 298 1076 l 361 1051 l 422 1209 z "},"Û":{"ha":746,"x_min":0,"x_max":678,"o":"m 0 339 l 0 949 l 68 949 l 68 339 q 147 147 68 227 q 339 68 227 68 q 531 147 452 68 q 610 339 610 227 l 610 949 l 678 949 l 678 339 q 579 99 678 199 q 339 0 479 0 q 99 99 199 0 q 0 339 0 199 m 229 1058 l 301 1227 l 378 1227 l 450 1058 l 377 1058 l 340 1145 l 302 1058 l 229 1058 z "},"Ü":{"ha":746,"x_min":0,"x_max":678,"o":"m 0 339 l 0 949 l 68 949 l 68 339 q 147 147 68 227 q 339 68 227 68 q 531 147 452 68 q 610 339 610 227 l 610 949 l 678 949 l 678 339 q 579 99 678 199 q 339 0 479 0 q 99 99 199 0 q 0 339 0 199 m 254 1160 l 322 1160 l 322 1227 l 254 1227 l 254 1160 m 356 1160 l 424 1160 l 424 1227 l 356 1227 l 356 1160 z "},"Ý":{"ha":746,"x_min":1,"x_max":677,"o":"m 373 465 l 373 0 l 305 0 l 305 465 l 299 475 l 1 949 l 81 949 l 339 538 l 597 949 l 677 949 l 379 475 l 373 465 m 422 1209 l 359 1234 l 298 1076 l 361 1051 l 422 1209 z "},"Þ":{"ha":746,"x_min":0,"x_max":678,"o":"m 68 610 l 424 610 q 604 536 529 610 q 678 356 678 461 q 604 176 678 251 q 424 102 529 102 l 68 102 l 68 -203 l 0 -203 l 0 882 l 68 882 l 68 610 m 68 170 l 424 170 q 556 224 501 170 q 610 356 610 279 q 556 488 610 433 q 424 543 501 543 l 68 543 l 68 170 z "},"ß":{"ha":780,"x_min":0,"x_max":731,"o":"m 68 102 l 68 0 l 0 0 l 0 839 q 290 945 130 927 q 560 909 450 962 q 700 758 669 857 q 680 575 731 659 q 532 469 628 491 l 521 466 l 520 466 l 532 463 q 679 357 627 441 q 708 178 730 273 q 602 31 685 82 q 358 -3 518 -21 q 68 102 197 14 m 68 102 l 101 160 q 371 63 233 77 q 568 87 509 50 q 642 193 626 125 q 622 321 659 262 q 517 397 585 380 q 170 432 370 432 l 170 500 q 518 535 371 500 q 623 610 586 551 q 635 742 659 670 q 526 853 610 814 q 303 878 441 892 q 68 802 183 867 l 68 102 z "},"à":{"ha":746,"x_min":0,"x_max":678,"o":"m 339 610 q 147 531 227 610 q 68 339 68 452 q 147 147 68 227 q 339 68 227 68 q 531 147 452 68 q 610 339 610 227 q 531 531 610 452 q 339 610 452 610 m 610 170 q 579 100 596 117 q 339 0 479 0 q 99 99 199 0 q 0 339 0 199 q 99 579 0 479 q 339 678 199 678 q 579 579 479 678 q 610 509 596 562 l 610 678 l 678 678 l 678 0 l 610 0 l 610 170 m 317 773 l 380 798 l 319 956 l 256 931 l 317 773 z "},"á":{"ha":746,"x_min":0,"x_max":678,"o":"m 339 610 q 147 531 227 610 q 68 339 68 452 q 147 147 68 227 q 339 68 227 68 q 531 147 452 68 q 610 339 610 227 q 531 531 610 452 q 339 610 452 610 m 610 170 q 579 100 596 117 q 339 0 479 0 q 99 99 199 0 q 0 339 0 199 q 99 579 0 479 q 339 678 199 678 q 579 579 479 678 q 610 509 596 562 l 610 678 l 678 678 l 678 0 l 610 0 l 610 170 m 422 931 l 359 956 l 298 798 l 361 773 l 422 931 z "},"â":{"ha":746,"x_min":0,"x_max":678,"o":"m 339 610 q 147 531 227 610 q 68 339 68 452 q 147 147 68 227 q 339 68 227 68 q 531 147 452 68 q 610 339 610 227 q 531 531 610 452 q 339 610 452 610 m 610 170 q 579 100 596 117 q 339 0 479 0 q 99 99 199 0 q 0 339 0 199 q 99 579 0 479 q 339 678 199 678 q 579 579 479 678 q 610 509 596 562 l 610 678 l 678 678 l 678 0 l 610 0 l 610 170 m 229 780 l 301 949 l 378 949 l 450 780 l 377 780 l 340 867 l 302 780 l 229 780 z "},"ã":{"ha":746,"x_min":0,"x_max":678,"o":"m 339 610 q 147 531 227 610 q 68 339 68 452 q 147 147 68 227 q 339 68 227 68 q 531 147 452 68 q 610 339 610 227 q 531 531 610 452 q 339 610 452 610 m 610 170 q 579 100 596 117 q 339 0 479 0 q 99 99 199 0 q 0 339 0 199 q 99 579 0 479 q 339 678 199 678 q 579 579 479 678 q 610 509 596 562 l 610 678 l 678 678 l 678 0 l 610 0 l 610 170 m 170 865 q 339 865 271 899 q 509 865 407 831 l 509 932 q 339 932 407 899 q 170 932 271 966 l 170 865 z "},"ä":{"ha":746,"x_min":0,"x_max":678,"o":"m 339 610 q 147 531 227 610 q 68 339 68 452 q 147 147 68 227 q 339 68 227 68 q 531 147 452 68 q 610 339 610 227 q 531 531 610 452 q 339 610 452 610 m 610 170 q 579 100 596 117 q 339 0 479 0 q 99 99 199 0 q 0 339 0 199 q 99 579 0 479 q 339 678 199 678 q 579 579 479 678 q 610 509 596 562 l 610 678 l 678 678 l 678 0 l 610 0 l 610 170 m 254 882 l 322 882 l 322 949 l 254 949 l 254 882 m 356 882 l 424 882 l 424 949 l 356 949 l 356 882 z "},"å":{"ha":746,"x_min":0,"x_max":678,"o":"m 339 610 q 147 531 227 610 q 68 339 68 452 q 147 147 68 227 q 339 68 227 68 q 531 147 452 68 q 610 339 610 227 q 531 531 610 452 q 339 610 452 610 m 610 170 q 579 100 596 117 q 339 0 479 0 q 99 99 199 0 q 0 339 0 199 q 99 579 0 479 q 339 678 199 678 q 579 579 479 678 q 610 509 596 562 l 610 678 l 678 678 l 678 0 l 610 0 l 610 170 m 339 949 q 411 920 381 949 q 441 848 441 890 q 411 776 441 806 q 339 746 381 746 q 267 776 297 746 q 237 848 237 806 q 267 920 237 890 q 339 949 297 949 m 339 882 q 315 872 325 882 q 305 848 305 862 q 315 824 305 833 q 339 814 325 814 q 363 824 353 814 q 373 848 373 833 q 363 872 373 862 q 339 882 353 882 z "},"æ":{"ha":1356,"x_min":0,"x_max":1289,"o":"m 339 610 q 147 531 227 610 q 68 339 68 452 q 147 147 68 227 q 339 68 227 68 q 531 147 452 68 q 610 339 610 227 q 531 531 610 452 q 339 610 452 610 m 1219 373 q 1141 531 1208 464 q 949 610 1062 610 q 758 531 837 610 q 680 373 690 464 l 1219 373 m 678 134 l 678 0 l 610 0 l 610 170 q 579 100 596 117 q 339 0 479 0 q 99 99 199 0 q 0 339 0 199 q 99 579 0 479 q 339 678 199 678 q 579 579 479 678 q 610 509 596 562 l 610 678 l 678 678 l 678 548 q 709 579 690 559 q 722 591 802 671 q 949 678 818 678 q 1190 579 1090 678 q 1289 339 1289 479 l 1289 305 l 680 305 q 758 147 690 214 q 949 68 837 68 q 1141 147 1061 68 l 1190 99 q 949 0 1090 0 q 709 99 809 0 q 678 134 692 116 m 678 547 l 678 544 q 697 566 687 555 q 678 547 686 555 z "},"ç":{"ha":644,"x_min":0,"x_max":579,"o":"m 222 -102 q 290 -119 290 -102 q 290 -153 290 -136 q 222 -170 290 -170 l 222 -237 q 357 -136 357 -237 q 290 -34 357 -34 l 290 3 q 339 0 314 0 q 579 99 479 0 l 531 147 q 339 68 451 68 q 147 147 227 68 q 68 339 68 227 q 147 531 68 451 q 339 610 227 610 q 531 531 451 610 l 579 579 q 339 678 479 678 q 99 579 199 678 q 0 339 0 479 q 99 99 0 199 q 222 20 154 44 l 222 -102 z "},"è":{"ha":746,"x_min":0,"x_max":678,"o":"m 608 373 q 531 531 598 464 q 339 610 452 610 q 147 531 227 610 q 70 373 80 464 l 608 373 m 99 579 q 112 591 192 671 q 339 678 208 678 q 579 579 479 678 q 678 339 678 479 l 678 305 l 70 305 q 147 147 80 214 q 339 68 227 68 q 531 147 451 68 l 579 99 q 339 0 479 0 q 99 99 199 0 q 0 339 0 199 q 87 566 0 471 q 99 579 7 486 m 317 773 l 380 798 l 319 956 l 256 931 l 317 773 z "},"é":{"ha":746,"x_min":0,"x_max":678,"o":"m 608 373 q 531 531 598 464 q 339 610 452 610 q 147 531 227 610 q 70 373 80 464 l 608 373 m 99 579 q 112 591 192 671 q 339 678 208 678 q 579 579 479 678 q 678 339 678 479 l 678 305 l 70 305 q 147 147 80 214 q 339 68 227 68 q 531 147 451 68 l 579 99 q 339 0 479 0 q 99 99 199 0 q 0 339 0 199 q 87 566 0 471 q 99 579 7 486 m 422 931 l 359 956 l 298 798 l 361 773 l 422 931 z "},"ê":{"ha":746,"x_min":0,"x_max":678,"o":"m 608 373 q 531 531 598 464 q 339 610 452 610 q 147 531 227 610 q 70 373 80 464 l 608 373 m 99 579 q 112 591 192 671 q 339 678 208 678 q 579 579 479 678 q 678 339 678 479 l 678 305 l 70 305 q 147 147 80 214 q 339 68 227 68 q 531 147 451 68 l 579 99 q 339 0 479 0 q 99 99 199 0 q 0 339 0 199 q 87 566 0 471 q 99 579 7 486 m 229 780 l 301 949 l 378 949 l 450 780 l 377 780 l 340 867 l 302 780 l 229 780 z "},"ë":{"ha":746,"x_min":0,"x_max":678,"o":"m 608 373 q 531 531 598 464 q 339 610 452 610 q 147 531 227 610 q 70 373 80 464 l 608 373 m 99 579 q 112 591 192 671 q 339 678 208 678 q 579 579 479 678 q 678 339 678 479 l 678 305 l 70 305 q 147 147 80 214 q 339 68 227 68 q 531 147 451 68 l 579 99 q 339 0 479 0 q 99 99 199 0 q 0 339 0 199 q 87 566 0 471 q 99 579 7 486 m 254 882 l 322 882 l 322 949 l 254 949 l 254 882 m 356 882 l 424 882 l 424 949 l 356 949 l 356 882 z "},"ì":{"ha":136,"x_min":-50,"x_max":76,"o":"m 68 678 l 68 0 l 0 0 l 0 678 l 68 678 m 12 773 l 75 798 l 14 956 l -50 931 l 12 773 z "},"í":{"ha":136,"x_min":-8,"x_max":117,"o":"m 68 678 l 68 0 l 0 0 l 0 678 l 68 678 m 117 931 l 54 956 l -7 798 l 56 773 l 117 931 z "},"î":{"ha":136,"x_min":-77,"x_max":145,"o":"m 68 678 l 68 0 l 0 0 l 0 678 l 68 678 m -77 780 l -4 949 l 73 949 l 145 780 l 72 780 l 35 867 l -3 780 l -77 780 z "},"ï":{"ha":136,"x_min":-51,"x_max":119,"o":"m 68 678 l 68 0 l 0 0 l 0 678 l 68 678 m -51 882 l 17 882 l 17 949 l -51 949 l -51 882 m 51 882 l 119 882 l 119 949 l 51 949 l 51 882 z "},"ð":{"ha":746,"x_min":0,"x_max":678,"o":"m 339 610 q 147 531 227 610 q 68 339 68 452 q 147 147 68 227 q 339 68 227 68 q 531 147 452 68 q 610 339 610 227 q 531 531 610 452 q 339 610 452 610 m 435 791 l 601 555 q 635 506 621 532 l 640 500 l 639 500 q 678 339 678 427 q 579 99 678 199 q 339 0 479 0 q 99 99 199 0 q 0 339 0 199 q 99 579 0 479 q 339 678 199 678 q 445 663 395 678 l 370 770 l 258 734 l 237 798 l 328 827 l 256 931 l 319 956 l 394 849 l 496 882 l 517 817 l 435 791 z "},"ñ":{"ha":610,"x_min":0,"x_max":543,"o":"m 0 678 l 68 678 l 68 587 q 79 599 73 593 q 271 678 159 678 q 463 599 384 678 q 543 407 543 519 l 543 0 l 475 0 l 475 407 q 415 551 475 491 q 271 610 355 610 q 127 551 187 610 q 68 407 68 491 l 68 0 l 0 0 l 0 678 m 102 865 q 271 865 203 899 q 441 865 339 831 l 441 932 q 271 932 339 899 q 102 932 203 966 l 102 865 z "},"ò":{"ha":746,"x_min":0,"x_max":678,"o":"m 339 0 q 99 99 199 0 q 0 339 0 199 q 99 579 0 479 q 339 678 199 678 q 579 579 479 678 q 678 339 678 479 q 579 99 678 199 q 339 0 479 0 m 339 610 q 147 531 227 610 q 68 339 68 452 q 147 147 68 227 q 339 68 227 68 q 531 147 452 68 q 610 339 610 227 q 531 531 610 452 q 339 610 452 610 m 317 773 l 380 798 l 319 956 l 256 931 l 317 773 z "},"ó":{"ha":746,"x_min":0,"x_max":678,"o":"m 339 0 q 99 99 199 0 q 0 339 0 199 q 99 579 0 479 q 339 678 199 678 q 579 579 479 678 q 678 339 678 479 q 579 99 678 199 q 339 0 479 0 m 339 610 q 147 531 227 610 q 68 339 68 452 q 147 147 68 227 q 339 68 227 68 q 531 147 452 68 q 610 339 610 227 q 531 531 610 452 q 339 610 452 610 m 422 931 l 359 956 l 298 798 l 361 773 l 422 931 z "},"ô":{"ha":746,"x_min":0,"x_max":678,"o":"m 339 0 q 99 99 199 0 q 0 339 0 199 q 99 579 0 479 q 339 678 199 678 q 579 579 479 678 q 678 339 678 479 q 579 99 678 199 q 339 0 479 0 m 339 610 q 147 531 227 610 q 68 339 68 452 q 147 147 68 227 q 339 68 227 68 q 531 147 452 68 q 610 339 610 227 q 531 531 610 452 q 339 610 452 610 m 229 780 l 301 949 l 378 949 l 450 780 l 377 780 l 340 867 l 302 780 l 229 780 z "},"õ":{"ha":746,"x_min":0,"x_max":678,"o":"m 339 0 q 99 99 199 0 q 0 339 0 199 q 99 579 0 479 q 339 678 199 678 q 579 579 479 678 q 678 339 678 479 q 579 99 678 199 q 339 0 479 0 m 339 610 q 147 531 227 610 q 68 339 68 452 q 147 147 68 227 q 339 68 227 68 q 531 147 452 68 q 610 339 610 227 q 531 531 610 452 q 339 610 452 610 m 170 865 q 339 865 271 899 q 509 865 407 831 l 509 932 q 339 932 407 899 q 170 932 271 966 l 170 865 z "},"ö":{"ha":746,"x_min":0,"x_max":678,"o":"m 339 0 q 99 99 199 0 q 0 339 0 199 q 99 579 0 479 q 339 678 199 678 q 579 579 479 678 q 678 339 678 479 q 579 99 678 199 q 339 0 479 0 m 339 610 q 147 531 227 610 q 68 339 68 452 q 147 147 68 227 q 339 68 227 68 q 531 147 452 68 q 610 339 610 227 q 531 531 610 452 q 339 610 452 610 m 254 882 l 322 882 l 322 949 l 254 949 l 254 882 m 356 882 l 424 882 l 424 949 l 356 949 l 356 882 z "},"÷":{"ha":407,"x_min":0,"x_max":339,"o":"m 0 441 l 0 509 l 339 509 l 339 441 l 0 441 m 136 576 l 136 644 l 203 644 l 203 576 l 136 576 m 203 373 l 203 305 l 136 305 l 136 373 l 203 373 z "},"ø":{"ha":746,"x_min":0,"x_max":678,"o":"m 279 74 q 339 68 307 68 q 531 147 452 68 q 610 339 610 227 q 531 531 610 452 q 442 591 491 571 l 279 74 m 218 96 l 379 608 q 339 610 359 610 q 147 531 227 610 q 68 339 68 452 q 147 147 68 227 q 218 96 180 115 m 463 656 q 579 579 526 631 q 678 339 678 479 q 579 99 678 199 q 339 0 479 0 q 258 9 297 0 l 170 -271 l 102 -271 l 197 30 q 100 100 144 55 q 0 339 0 199 q 99 579 0 479 q 339 678 199 678 q 400 673 370 678 l 509 1017 l 576 1017 l 463 656 z "},"ù":{"ha":610,"x_min":0,"x_max":543,"o":"m 543 0 l 475 0 l 475 92 q 463 79 469 85 q 271 0 384 0 q 79 79 159 0 q 0 271 0 159 l 0 678 l 68 678 l 68 271 q 127 127 68 187 q 271 68 187 68 q 415 127 355 68 q 475 271 475 187 l 475 678 l 543 678 l 543 0 m 250 773 l 313 798 l 251 956 l 188 931 l 250 773 z "},"ú":{"ha":610,"x_min":0,"x_max":543,"o":"m 543 0 l 475 0 l 475 92 q 463 79 469 85 q 271 0 384 0 q 79 79 159 0 q 0 271 0 159 l 0 678 l 68 678 l 68 271 q 127 127 68 187 q 271 68 187 68 q 415 127 355 68 q 475 271 475 187 l 475 678 l 543 678 l 543 0 m 355 931 l 292 956 l 230 798 l 293 773 l 355 931 z "},"û":{"ha":610,"x_min":0,"x_max":543,"o":"m 543 0 l 475 0 l 475 92 q 463 79 469 85 q 271 0 384 0 q 79 79 159 0 q 0 271 0 159 l 0 678 l 68 678 l 68 271 q 127 127 68 187 q 271 68 187 68 q 415 127 355 68 q 475 271 475 187 l 475 678 l 543 678 l 543 0 m 161 780 l 233 949 l 310 949 l 382 780 l 309 780 l 272 867 l 235 780 l 161 780 z "},"ü":{"ha":610,"x_min":0,"x_max":543,"o":"m 543 0 l 475 0 l 475 92 q 463 79 469 85 q 271 0 384 0 q 79 79 159 0 q 0 271 0 159 l 0 678 l 68 678 l 68 271 q 127 127 68 187 q 271 68 187 68 q 415 127 355 68 q 475 271 475 187 l 475 678 l 543 678 l 543 0 m 186 882 l 254 882 l 254 949 l 186 949 l 186 882 m 288 882 l 356 882 l 356 949 l 288 949 l 288 882 z "},"ý":{"ha":746,"x_min":0,"x_max":659,"o":"m 291 0 l 0 678 l 75 678 l 330 83 l 585 678 l 659 678 l 250 -271 l 176 -271 l 291 0 m 412 931 l 349 956 l 288 798 l 351 773 l 412 931 z "},"þ":{"ha":746,"x_min":0,"x_max":678,"o":"m 68 610 l 424 610 q 604 536 529 610 q 678 356 678 461 q 604 176 678 251 q 424 102 529 102 l 68 102 l 68 -203 l 0 -203 l 0 882 l 68 882 l 68 610 m 68 170 l 424 170 q 556 224 501 170 q 610 356 610 279 q 556 488 610 433 q 424 543 501 543 l 68 543 l 68 170 z "},"ÿ":{"ha":746,"x_min":0,"x_max":659,"o":"m 291 0 l 0 678 l 75 678 l 330 83 l 585 678 l 659 678 l 250 -271 l 176 -271 l 291 0 m 245 882 l 313 882 l 313 949 l 245 949 l 245 882 m 347 882 l 414 882 l 414 949 l 347 949 l 347 882 z "},"ı":{"ha":136,"x_min":0,"x_max":68,"o":"m 68 678 l 68 0 l 0 0 l 0 678 l 68 678 z "},"ˆ":{"ha":305,"x_min":9,"x_max":231,"o":"m 9 780 l 81 949 l 158 949 l 231 780 l 157 780 l 120 867 l 83 780 l 9 780 z "},"ˇ":{"ha":305,"x_min":9,"x_max":231,"o":"m 83 949 l 120 863 l 157 949 l 231 949 l 158 780 l 81 780 l 9 949 l 83 949 z "},"ˉ":{"ha":407,"x_min":0,"x_max":339,"o":"m 0 864 l 339 864 l 339 932 l 0 932 l 0 864 z "},"˘":{"ha":373,"x_min":0,"x_max":305,"o":"m 237 949 l 305 949 l 305 946 q 260 838 305 883 q 153 793 216 793 q 45 838 90 793 q 0 946 0 883 l 0 949 l 68 949 l 68 946 q 93 886 68 911 q 153 861 117 861 q 213 886 188 861 q 237 946 237 911 l 237 949 z "},"˙":{"ha":345,"x_min":0,"x_max":58,"o":"m 0 881 l 58 881 l 58 939 l 0 939 l 0 881 z "},"˚":{"ha":271,"x_min":0,"x_max":203,"o":"m 102 949 q 174 920 144 949 q 203 848 203 890 q 174 776 203 806 q 102 746 144 746 q 30 776 60 746 q 0 848 0 806 q 30 920 0 890 q 102 949 60 949 m 102 882 q 78 872 87 882 q 68 848 68 862 q 78 824 68 833 q 102 814 87 814 q 126 824 116 814 q 136 848 136 833 q 126 872 136 862 q 102 882 116 882 z "},"˜":{"ha":407,"x_min":0,"x_max":339,"o":"m 0 865 q 170 865 102 899 q 339 865 237 831 l 339 932 q 170 932 237 899 q 0 932 102 966 l 0 865 z "},"˝":{"ha":694,"x_min":-92,"x_max":159,"o":"m 33 931 l -30 956 l -92 798 l -28 773 l 33 931 m 159 931 l 96 956 l 34 798 l 97 773 l 159 931 z "},"–":{"ha":543,"x_min":0,"x_max":475,"o":"m 0 441 l 475 441 l 475 509 l 0 509 l 0 441 z "},"—":{"ha":814,"x_min":0,"x_max":746,"o":"m 746 441 l 746 509 l 0 509 l 0 441 l 746 441 z "},"‘":{"ha":136,"x_min":-28,"x_max":96,"o":"m 96 931 l 33 956 l -28 798 l 35 773 l 96 931 z "},"’":{"ha":136,"x_min":-28,"x_max":96,"o":"m 33 773 l 96 798 l 35 956 l -28 931 l 33 773 z "},"‚":{"ha":136,"x_min":-28,"x_max":96,"o":"m 33 -92 l 96 -66 l 35 92 l -28 66 l 33 -92 z "},"“":{"ha":311,"x_min":-28,"x_max":272,"o":"m 96 931 l 33 956 l -28 798 l 35 773 l 96 931 m 272 931 l 209 956 l 147 798 l 210 773 l 272 931 z "},"”":{"ha":311,"x_min":-28,"x_max":272,"o":"m 33 773 l 96 798 l 35 956 l -28 931 l 33 773 m 209 773 l 272 798 l 210 956 l 147 931 l 209 773 z "},"„":{"ha":311,"x_min":-28,"x_max":272,"o":"m 33 -92 l 96 -66 l 35 92 l -28 66 l 33 -92 m 209 -92 l 272 -66 l 210 92 l 147 66 l 209 -92 z "},"…":{"ha":1389,"x_min":0,"x_max":994,"o":"m 0 0 l 68 0 l 68 68 l 0 68 l 0 0 m 463 0 l 531 0 l 531 68 l 463 68 l 463 0 m 926 0 l 994 0 l 994 68 l 926 68 l 926 0 z "},"‹":{"ha":406,"x_min":0,"x_max":339,"o":"m 339 584 l 83 474 l 339 364 l 339 290 l 0 436 l 0 513 l 339 658 l 339 584 z "},"›":{"ha":406,"x_min":0,"x_max":339,"o":"m 0 364 l 256 475 l 0 584 l 0 658 l 339 513 l 339 436 l 0 290 l 0 364 z "},"⁄":{"ha":232,"x_min":0,"x_max":0,"o":""},"₣":{"ha":814,"x_min":0,"x_max":746,"o":"m 0 277 l 0 210 l 68 210 l 68 0 l 136 0 l 136 210 l 678 210 l 678 277 l 136 277 l 136 441 l 610 441 l 610 509 l 136 509 l 136 882 l 746 882 l 746 949 l 68 949 l 68 277 l 0 277 z "},"₤":{"ha":745,"x_min":0,"x_max":678,"o":"m 68 543 l 68 610 q 167 850 68 751 q 407 949 267 949 q 646 850 547 949 l 599 802 q 407 882 519 882 q 215 802 294 882 q 136 610 136 723 l 136 543 l 543 543 l 543 475 l 136 475 l 136 407 l 543 407 l 543 339 l 136 339 l 136 68 l 678 68 l 678 0 l 0 0 l 0 68 l 68 68 l 68 339 l 0 339 l 0 407 l 68 407 l 68 475 l 0 475 l 0 543 l 68 543 z "},"₧":{"ha":1248,"x_min":0,"x_max":1207,"o":"m 598 610 q 543 515 581 558 q 382 441 476 441 l 61 441 l 61 0 l 0 0 l 0 949 l 382 949 q 543 875 476 949 q 610 695 610 800 q 610 678 610 686 l 644 678 l 644 949 l 712 949 l 712 678 l 789 678 q 952 695 849 706 q 1172 612 1070 682 l 1139 557 q 942 630 1039 621 q 814 618 854 639 l 814 610 l 801 610 q 756 543 766 585 q 770 457 745 496 q 840 406 794 418 l 1057 355 q 1168 275 1129 338 q 1190 140 1207 212 q 1110 28 1173 67 q 930 3 1048 -10 q 814 31 869 9 l 814 0 q 694 50 743 0 q 644 170 644 99 l 644 610 l 598 610 m 713 610 l 712 610 l 712 609 q 713 610 713 610 m 712 425 l 712 170 q 728 115 712 139 l 743 140 q 940 67 843 77 q 1076 83 1037 58 q 1126 155 1116 109 q 1112 240 1137 201 q 1042 291 1088 279 l 825 343 q 714 422 753 359 q 712 425 713 424 m 543 641 l 543 678 l 549 678 q 549 695 549 686 q 500 827 549 772 q 382 882 451 882 l 61 882 l 61 509 l 382 509 q 500 564 451 509 q 543 641 531 597 z "},"€":{"ha":814,"x_min":5,"x_max":746,"o":"m 684 418 l 684 486 l 115 486 q 121 554 116 522 l 684 554 l 684 622 l 138 622 q 216 763 163 699 q 461 882 317 882 q 706 763 604 882 l 746 810 q 461 949 628 949 q 176 810 294 949 q 76 622 104 726 l 5 622 l 5 554 l 63 554 q 58 486 58 521 l 5 486 l 5 418 l 60 418 q 176 139 75 258 q 461 0 294 0 q 746 139 628 0 l 706 187 q 461 68 604 68 q 216 187 317 68 q 118 418 132 286 l 684 418 z "},"№":{"ha":1017,"x_min":0,"x_max":949,"o":"m 610 108 l 610 949 l 678 949 l 678 0 l 597 0 l 68 842 l 68 0 l 0 0 l 0 949 l 81 949 l 610 108 m 848 949 q 920 920 890 949 q 949 848 949 890 q 920 776 949 806 q 848 746 890 746 q 776 776 806 746 q 746 848 746 806 q 776 920 746 890 q 848 949 806 949 m 848 882 q 824 872 833 882 q 814 848 814 862 q 824 824 814 833 q 848 814 833 814 q 872 824 862 814 q 882 848 882 833 q 872 872 882 862 q 848 882 862 882 z "},"™":{"ha":800,"x_min":0,"x_max":732,"o":"m 305 973 l 0 973 l 0 945 l 137 945 l 137 593 l 168 593 l 168 945 l 305 945 l 305 973 m 519 671 l 336 929 l 336 593 l 305 593 l 305 973 l 341 973 l 519 722 l 696 973 l 732 973 l 732 593 l 702 593 l 702 929 l 519 671 z "},"":{"ha":728,"x_min":0,"x_max":0,"o":""},"":{"ha":733,"x_min":0,"x_max":0,"o":""}}}
